<svg width="196" height="23" viewBox="0 0 196 23" fill="none" xmlns="http://www.w3.org/2000/svg">
<path d="M0.0700002 22V0.999999H8.68C10.14 0.999999 11.37 1.23 12.37 1.69C13.37 2.15 14.12 2.79 14.62 3.61C15.14 4.41 15.4 5.34 15.4 6.4C15.4 7.46 15.17 8.35 14.71 9.07C14.25 9.79 13.64 10.35 12.88 10.75C12.14 11.13 11.32 11.35 10.42 11.41L10.9 11.08C11.86 11.12 12.71 11.38 13.45 11.86C14.21 12.32 14.8 12.94 15.22 13.72C15.66 14.5 15.88 15.35 15.88 16.27C15.88 17.39 15.61 18.38 15.07 19.24C14.53 20.1 13.75 20.78 12.73 21.28C11.71 21.76 10.46 22 8.98 22H0.0700002ZM4.12 18.7H8.32C9.42 18.7 10.27 18.45 10.87 17.95C11.47 17.45 11.77 16.73 11.77 15.79C11.77 14.85 11.46 14.12 10.84 13.6C10.22 13.06 9.36 12.79 8.26 12.79H4.12V18.7ZM4.12 9.76H8.02C9.08 9.76 9.88 9.52 10.42 9.04C10.98 8.56 11.26 7.88 11.26 7C11.26 6.14 10.98 5.47 10.42 4.99C9.88 4.49 9.07 4.24 7.99 4.24H4.12V9.76ZM17.6444 22L25.3244 0.999999H29.9144L37.5644 22H33.2744L27.6044 5.62L21.9044 22H17.6444ZM21.0344 17.23L22.1144 14.08H32.7944L33.8444 17.23H21.0344ZM40.3239 22V0.999999H44.3739V18.85H53.5839V22H40.3239ZM55.6424 22L63.3224 0.999999H67.9124L75.5624 22H71.2724L65.6024 5.62L59.9024 22H55.6424ZM59.0324 17.23L60.1124 14.08H70.7924L71.8424 17.23H59.0324ZM78.322 22V0.999999H82.372L92.032 15.49V0.999999H96.082V22H92.032L82.372 7.54V22H78.322ZM109.597 22.36C107.497 22.36 105.687 21.91 104.167 21.01C102.667 20.09 101.507 18.82 100.687 17.2C99.8874 15.56 99.4874 13.67 99.4874 11.53C99.4874 9.39 99.8874 7.5 100.687 5.86C101.507 4.22 102.667 2.94 104.167 2.02C105.687 1.1 107.497 0.64 109.597 0.64C112.137 0.64 114.217 1.27 115.837 2.53C117.457 3.79 118.467 5.57 118.867 7.87H114.457C114.197 6.75 113.647 5.88 112.807 5.26C111.987 4.62 110.907 4.3 109.567 4.3C108.327 4.3 107.257 4.6 106.357 5.2C105.477 5.78 104.797 6.61 104.317 7.69C103.837 8.75 103.597 10.03 103.597 11.53C103.597 13.01 103.837 14.29 104.317 15.37C104.797 16.45 105.477 17.28 106.357 17.86C107.257 18.44 108.327 18.73 109.567 18.73C110.907 18.73 111.987 18.44 112.807 17.86C113.627 17.26 114.167 16.43 114.427 15.37H118.867C118.467 17.55 117.457 19.26 115.837 20.5C114.217 21.74 112.137 22.36 109.597 22.36ZM122.326 22V0.999999H136.126V4.27H126.376V9.76H135.226V12.91H126.376V18.73H136.126V22H122.326ZM153.747 22.36C152.207 22.36 150.867 22.08 149.727 21.52C148.587 20.96 147.707 20.18 147.087 19.18C146.467 18.18 146.157 17.02 146.157 15.7H148.797C148.797 16.52 148.987 17.28 149.367 17.98C149.747 18.66 150.297 19.21 151.017 19.63C151.757 20.03 152.667 20.23 153.747 20.23C154.687 20.23 155.487 20.08 156.147 19.78C156.827 19.46 157.337 19.03 157.677 18.49C158.037 17.95 158.217 17.34 158.217 16.66C158.217 15.84 158.037 15.18 157.677 14.68C157.337 14.16 156.867 13.74 156.267 13.42C155.667 13.1 154.967 12.82 154.167 12.58C153.387 12.32 152.567 12.05 151.707 11.77C150.047 11.21 148.827 10.51 148.047 9.67C147.267 8.83 146.877 7.74 146.877 6.4C146.877 5.26 147.137 4.26 147.657 3.4C148.197 2.54 148.957 1.87 149.937 1.39C150.937 0.889999 152.117 0.64 153.477 0.64C154.817 0.64 155.977 0.889999 156.957 1.39C157.957 1.89 158.737 2.58 159.297 3.46C159.857 4.32 160.137 5.32 160.137 6.46H157.497C157.497 5.88 157.347 5.31 157.047 4.75C156.747 4.19 156.287 3.73 155.667 3.37C155.067 2.99 154.307 2.8 153.387 2.8C152.627 2.78 151.947 2.91 151.347 3.19C150.767 3.45 150.307 3.83 149.967 4.33C149.647 4.83 149.487 5.44 149.487 6.16C149.487 6.84 149.627 7.39 149.907 7.81C150.207 8.23 150.627 8.59 151.167 8.89C151.727 9.17 152.377 9.43 153.117 9.67C153.857 9.91 154.677 10.18 155.577 10.48C156.597 10.82 157.497 11.24 158.277 11.74C159.077 12.22 159.697 12.84 160.137 13.6C160.597 14.36 160.827 15.33 160.827 16.51C160.827 17.51 160.557 18.46 160.017 19.36C159.497 20.24 158.717 20.96 157.677 21.52C156.637 22.08 155.327 22.36 153.747 22.36ZM164.459 22V0.999999H171.299C172.959 0.999999 174.319 1.28 175.379 1.84C176.459 2.38 177.249 3.11 177.749 4.03C178.269 4.95 178.529 6 178.529 7.18C178.529 8.32 178.269 9.36 177.749 10.3C177.249 11.22 176.469 11.96 175.409 12.52C174.349 13.08 172.979 13.36 171.299 13.36H166.979V22H164.459ZM166.979 11.23H171.269C172.949 11.23 174.149 10.86 174.869 10.12C175.589 9.38 175.949 8.4 175.949 7.18C175.949 5.88 175.589 4.88 174.869 4.18C174.149 3.46 172.949 3.1 171.269 3.1H166.979V11.23ZM177.875 22L185.615 0.999999H188.285L195.995 22H193.325L186.935 4.15L180.515 22H177.875ZM181.415 16.6L182.135 14.56H191.645L192.365 16.6H181.415Z" fill="black"/>
</svg>
